<?xml version="1.0" encoding="us-ascii" standalone="no"?><svg xmlns="http://www.w3.org/2000/svg" xmlns:xlink="http://www.w3.org/1999/xlink" contentStyleType="text/css" height="568px" preserveAspectRatio="none" style="width:570px;height:568px;background:#FFFFFF;" version="1.1" viewBox="0 0 570 568" width="570px" zoomAndPan="magnify"><defs/><g><rect fill="#FFFFFF" height="353.0547" style="stroke:#181818;stroke-width:1.0;" width="10" x="194" y="114.9609"/><rect fill="#FFFFFF" height="290" style="stroke:#181818;stroke-width:1.0;" width="10" x="349" y="187.0156"/><rect fill="#FFFFFF" height="152.5938" style="stroke:#181818;stroke-width:1.0;" width="10" x="487" y="217.3672"/><rect fill="none" height="308.7031" style="stroke:#000000;stroke-width:1.5;" width="553" x="10" y="129.9609"/><line style="stroke:#181818;stroke-width:0.5;stroke-dasharray:5.0,5.0;" x1="54" x2="54" y1="82.6094" y2="486.0156"/><line style="stroke:#181818;stroke-width:0.5;stroke-dasharray:5.0,5.0;" x1="198.5" x2="198.5" y1="82.6094" y2="486.0156"/><line style="stroke:#181818;stroke-width:0.5;stroke-dasharray:5.0,5.0;" x1="353.5" x2="353.5" y1="82.6094" y2="486.0156"/><line style="stroke:#181818;stroke-width:0.5;stroke-dasharray:5.0,5.0;" x1="491.5" x2="491.5" y1="82.6094" y2="486.0156"/><text fill="#000000" font-family="sans-serif" font-size="14" lengthAdjust="spacing" textLength="62" x="20" y="79.5332">Web User</text><ellipse cx="54" cy="13.5" fill="#E2E2F0" rx="8" ry="8" style="stroke:#181818;stroke-width:0.5;"/><path d="M54,21.5 L54,48.5 M41,29.5 L67,29.5 M54,48.5 L41,63.5 M54,48.5 L67,63.5 " fill="none" style="stroke:#181818;stroke-width:0.5;"/><text fill="#000000" font-family="sans-serif" font-size="14" lengthAdjust="spacing" textLength="62" x="20" y="499.5488">Web User</text><ellipse cx="54" cy="511.125" fill="#E2E2F0" rx="8" ry="8" style="stroke:#181818;stroke-width:0.5;"/><path d="M54,519.125 L54,546.125 M41,527.125 L67,527.125 M54,546.125 L41,561.125 M54,546.125 L67,561.125 " fill="none" style="stroke:#181818;stroke-width:0.5;"/><rect fill="#E2E2F0" height="31.6094" rx="2.5" ry="2.5" style="stroke:#181818;stroke-width:0.5;" width="77" x="160.5" y="50"/><text fill="#000000" font-family="sans-serif" font-size="14" lengthAdjust="spacing" textLength="63" x="167.5" y="71.5332">Front End</text><rect fill="#E2E2F0" height="31.6094" rx="2.5" ry="2.5" style="stroke:#181818;stroke-width:0.5;" width="77" x="160.5" y="485.0156"/><text fill="#000000" font-family="sans-serif" font-size="14" lengthAdjust="spacing" textLength="63" x="167.5" y="506.5488">Front End</text><rect fill="#E2E2F0" height="31.6094" rx="2.5" ry="2.5" style="stroke:#181818;stroke-width:0.5;" width="69" x="319.5" y="50"/><text fill="#000000" font-family="sans-serif" font-size="14" lengthAdjust="spacing" textLength="55" x="326.5" y="71.5332">Gateway</text><rect fill="#E2E2F0" height="31.6094" rx="2.5" ry="2.5" style="stroke:#181818;stroke-width:0.5;" width="69" x="319.5" y="485.0156"/><text fill="#000000" font-family="sans-serif" font-size="14" lengthAdjust="spacing" textLength="55" x="326.5" y="506.5488">Gateway</text><rect fill="#E2E2F0" height="49.2188" rx="2.5" ry="2.5" style="stroke:#181818;stroke-width:0.5;" width="59" x="462.5" y="32.3906"/><text fill="#000000" font-family="sans-serif" font-size="14" lengthAdjust="spacing" textLength="45" x="469.5" y="53.9238">Identity</text><text fill="#000000" font-family="sans-serif" font-size="14" lengthAdjust="spacing" textLength="42" x="471" y="71.5332">Server</text><rect fill="#E2E2F0" height="49.2188" rx="2.5" ry="2.5" style="stroke:#181818;stroke-width:0.5;" width="59" x="462.5" y="485.0156"/><text fill="#000000" font-family="sans-serif" font-size="14" lengthAdjust="spacing" textLength="45" x="469.5" y="506.5488">Identity</text><text fill="#000000" font-family="sans-serif" font-size="14" lengthAdjust="spacing" textLength="42" x="471" y="524.1582">Server</text><rect fill="#FFFFFF" height="353.0547" style="stroke:#181818;stroke-width:1.0;" width="10" x="194" y="114.9609"/><rect fill="#FFFFFF" height="290" style="stroke:#181818;stroke-width:1.0;" width="10" x="349" y="187.0156"/><rect fill="#FFFFFF" height="152.5938" style="stroke:#181818;stroke-width:1.0;" width="10" x="487" y="217.3672"/><polygon fill="#181818" points="182,110.9609,192,114.9609,182,118.9609,186,114.9609" style="stroke:#181818;stroke-width:1.0;"/><line style="stroke:#181818;stroke-width:1.0;" x1="54" x2="188" y1="114.9609" y2="114.9609"/><text fill="#000000" font-family="sans-serif" font-size="13" lengthAdjust="spacing" textLength="86" x="61" y="110.1045">Orders request</text><path d="M10,129.9609 L184,129.9609 L184,138.3125 L174,148.3125 L10,148.3125 L10,129.9609 " fill="#EEEEEE" style="stroke:#000000;stroke-width:1.5;"/><rect fill="none" height="308.7031" style="stroke:#000000;stroke-width:1.5;" width="553" x="10" y="129.9609"/><text fill="#000000" font-family="sans-serif" font-size="13" font-weight="bold" lengthAdjust="spacing" textLength="129" x="25" y="144.4561">Step: Authentication</text><polygon fill="#181818" points="337,183.0156,347,187.0156,337,191.0156,341,187.0156" style="stroke:#181818;stroke-width:1.0;"/><line style="stroke:#181818;stroke-width:1.0;" x1="204" x2="343" y1="187.0156" y2="187.0156"/><text fill="#000000" font-family="sans-serif" font-size="13" lengthAdjust="spacing" textLength="103" x="211" y="165.8076">GET /api/vi/orders</text><text fill="#000000" font-family="sans-serif" font-size="13" lengthAdjust="spacing" textLength="74" x="211" y="182.1592">Bearer token</text><polygon fill="#181818" points="475,213.3672,485,217.3672,475,221.3672,479,217.3672" style="stroke:#181818;stroke-width:1.0;"/><line style="stroke:#181818;stroke-width:1.0;" x1="359" x2="481" y1="217.3672" y2="217.3672"/><text fill="#000000" font-family="sans-serif" font-size="13" lengthAdjust="spacing" textLength="109" x="366" y="212.5107">Authenticate token</text><line style="stroke:#181818;stroke-width:1.0;" x1="497" x2="539" y1="264.0703" y2="264.0703"/><line style="stroke:#181818;stroke-width:1.0;" x1="539" x2="539" y1="264.0703" y2="277.0703"/><line style="stroke:#181818;stroke-width:1.0;" x1="498" x2="539" y1="277.0703" y2="277.0703"/><polygon fill="#181818" points="508,273.0703,498,277.0703,508,281.0703,504,277.0703" style="stroke:#181818;stroke-width:1.0;"/><text fill="#000000" font-family="sans-serif" font-size="13" lengthAdjust="spacing" textLength="47" x="504" y="242.8623">Validate</text><text fill="#000000" font-family="sans-serif" font-size="13" lengthAdjust="spacing" textLength="32" x="504" y="259.2139">token</text><polygon fill="#181818" points="370,319.7734,360,323.7734,370,327.7734,366,323.7734" style="stroke:#181818;stroke-width:1.0;"/><line style="stroke:#181818;stroke-width:1.0;" x1="364" x2="486" y1="323.7734" y2="323.7734"/><text fill="#000000" font-family="sans-serif" font-size="13" lengthAdjust="spacing" textLength="55" x="376" y="302.5654">Success,</text><text fill="#000000" font-family="sans-serif" font-size="13" lengthAdjust="spacing" textLength="86" x="376" y="318.917">token validated</text><line style="stroke:#000000;stroke-width:1.0;stroke-dasharray:2.0,2.0;" x1="10" x2="563" y1="332.7734" y2="332.7734"/><text fill="#000000" font-family="sans-serif" font-size="11" font-weight="bold" lengthAdjust="spacing" textLength="121" x="15" y="344.1924">[Authentication failed]</text><polygon fill="#181818" points="370,365.9609,360,369.9609,370,373.9609,366,369.9609" style="stroke:#181818;stroke-width:1.0;"/><line style="stroke:#181818;stroke-width:1.0;" x1="364" x2="491" y1="369.9609" y2="369.9609"/><text fill="#000000" font-family="sans-serif" font-size="13" lengthAdjust="spacing" textLength="82" x="376" y="365.1045">Request failed</text><polygon fill="#181818" points="215,396.3125,205,400.3125,215,404.3125,211,400.3125" style="stroke:#181818;stroke-width:1.0;"/><line style="stroke:#181818;stroke-width:1.0;" x1="209" x2="348" y1="400.3125" y2="400.3125"/><text fill="#000000" font-family="sans-serif" font-size="13" lengthAdjust="spacing" textLength="121" x="221" y="395.4561">Authentication failure</text><polygon fill="#181818" points="65,426.6641,55,430.6641,65,434.6641,61,430.6641" style="stroke:#181818;stroke-width:1.0;"/><line style="stroke:#181818;stroke-width:1.0;" x1="59" x2="193" y1="430.6641" y2="430.6641"/><text fill="#000000" font-family="sans-serif" font-size="13" lengthAdjust="spacing" textLength="116" x="71" y="425.8076">"Please login again"</text><polygon fill="#181818" points="65,464.0156,55,468.0156,65,472.0156,61,468.0156" style="stroke:#181818;stroke-width:1.0;"/><line style="stroke:#181818;stroke-width:1.0;" x1="59" x2="198" y1="468.0156" y2="468.0156"/><text fill="#000000" font-family="sans-serif" font-size="13" lengthAdjust="spacing" textLength="94" x="71" y="463.1592">Sends response</text><!--SRC=[bLH1Rjim4Bpp5Glru0I9RQ177GgaRHhaqXfrsbvoMKjhbIbDiYJbmC_90tBg4_on3YKPjUCsI7smQ7fdPpWxr8ZUIsKuyCf5SeixINYUU0v9LzgpJH9F9pJN98QiMos241DgK-10OlDshRa1dgboDccnGX8zLpetf9-j1CcziQ0eZEebTj2NsjYHij4SjMqcQaGV7R2GONJ3oGNjgExL1KgkHh7PKmbyte88mv62cCnfWVSkz6pKG0t0sqUsn6rog-q3piMhp7zENeAZk7tCdArbMhI2Rn-s3rMkKbn10nNVP45VeeI2G8CVUQts7ABYGy39wTBMNSdCXSJceEAAazppvX1rNKE6JfjREvUm7lhlDlijfQOZke2QDSws_MLX1naOIDMcCXApGlm5BmVE_a7ZDpkTLD9SR9tjYTxPAAgM9o1IXC-hMN0tsdVhYyHtRXWO-LP0gcrbMXrwis6Hyve7oo6hx60xIh0FdS_EmFyfr1Ao03ICgQiybZaU7olDbIT5xb4WI5ZW6PsbzVR1Q4p-L8scIhsC5Tcw2grt4Lb6WX5Zc-DQgYQurjCyYI_featVi_iL9mJfYT9XX7ttgyiRchBNqxMUkexfrhuL3f9p-aDwx0u1yE5K-nvxRBA76a6WMIBehX_64-XnivA-uWhLw79h_xGvXktamEUsgYJ6yw6UrWE-XalNox4OZ7rftBtgLeUkq9ArGUNp7DquF_VUxoFsB1cSBV_MlmtoZvoKLCoCC6GPrsXSweQrBRfRKgzqP-JkDT697q9i1GV6t_QP8z7h_p_KW9bC9eGiZkYTbe0t92vCazEc46YbNfRstm00]--></g></svg>