<?xml version="1.0" encoding="us-ascii" standalone="no"?><svg xmlns="http://www.w3.org/2000/svg" xmlns:xlink="http://www.w3.org/1999/xlink" contentStyleType="text/css" height="995px" preserveAspectRatio="none" style="width:873px;height:995px;background:#FFFFFF;" version="1.1" viewBox="0 0 873 995" width="873px" zoomAndPan="magnify"><defs/><g><text fill="#000000" font-family="sans-serif" font-size="14" font-weight="bold" lengthAdjust="spacing" textLength="182" x="341.75" y="43.1113">WEB USER ORDERS FLOW</text><rect fill="#FFFFFF" height="697.9219" style="stroke:#181818;stroke-width:1.0;" width="10" x="205" y="174.3672"/><rect fill="#FFFFFF" height="634.8672" style="stroke:#181818;stroke-width:1.0;" width="10" x="371" y="246.4219"/><rect fill="#FFFFFF" height="152.5938" style="stroke:#181818;stroke-width:1.0;" width="10" x="520" y="276.7734"/><rect fill="#FFFFFF" height="276.1641" style="stroke:#181818;stroke-width:1.0;" width="10" x="602" y="558.7734"/><rect fill="#FFFFFF" height="30.3516" style="stroke:#181818;stroke-width:1.0;" width="10" x="728" y="674.1797"/><rect fill="#FFFFFF" height="30.3516" style="stroke:#181818;stroke-width:1.0;" width="10" x="801" y="767.2344"/><rect fill="none" height="314.7031" style="stroke:#000000;stroke-width:1.5;" width="597" x="10" y="189.3672"/><rect fill="none" height="324.8672" style="stroke:#000000;stroke-width:1.5;" width="695" x="161.5" y="518.0703"/><rect fill="none" height="79.0547" style="stroke:#000000;stroke-width:1.5;" width="212.5" x="563" y="633.4766"/><rect fill="none" height="79.0547" style="stroke:#000000;stroke-width:1.5;" width="283.5" x="563" y="726.5313"/><line style="stroke:#181818;stroke-width:0.5;stroke-dasharray:5.0,5.0;" x1="54" x2="54" y1="142.0156" y2="890.2891"/><line style="stroke:#181818;stroke-width:0.5;stroke-dasharray:5.0,5.0;" x1="209.5" x2="209.5" y1="142.0156" y2="890.2891"/><line style="stroke:#181818;stroke-width:0.5;stroke-dasharray:5.0,5.0;" x1="375.5" x2="375.5" y1="142.0156" y2="890.2891"/><line style="stroke:#181818;stroke-width:0.5;stroke-dasharray:5.0,5.0;" x1="524.5" x2="524.5" y1="142.0156" y2="890.2891"/><line style="stroke:#181818;stroke-width:0.5;stroke-dasharray:5.0,5.0;" x1="607" x2="607" y1="142.0156" y2="890.2891"/><line style="stroke:#181818;stroke-width:0.5;stroke-dasharray:5.0,5.0;" x1="732.5" x2="732.5" y1="142.0156" y2="890.2891"/><line style="stroke:#181818;stroke-width:0.5;stroke-dasharray:5.0,5.0;" x1="805.5" x2="805.5" y1="142.0156" y2="890.2891"/><text fill="#000000" font-family="sans-serif" font-size="14" lengthAdjust="spacing" textLength="62" x="20" y="138.9395">Web User</text><ellipse cx="54" cy="72.9063" fill="#E2E2F0" rx="8" ry="8" style="stroke:#181818;stroke-width:0.5;"/><path d="M54,80.9063 L54,107.9063 M41,88.9063 L67,88.9063 M54,107.9063 L41,122.9063 M54,107.9063 L67,122.9063 " fill="none" style="stroke:#181818;stroke-width:0.5;"/><text fill="#000000" font-family="sans-serif" font-size="14" lengthAdjust="spacing" textLength="62" x="20" y="903.8223">Web User</text><ellipse cx="54" cy="915.3984" fill="#E2E2F0" rx="8" ry="8" style="stroke:#181818;stroke-width:0.5;"/><path d="M54,923.3984 L54,950.3984 M41,931.3984 L67,931.3984 M54,950.3984 L41,965.3984 M54,950.3984 L67,965.3984 " fill="none" style="stroke:#181818;stroke-width:0.5;"/><rect fill="#E2E2F0" height="31.6094" rx="2.5" ry="2.5" style="stroke:#181818;stroke-width:0.5;" width="77" x="171.5" y="109.4063"/><text fill="#000000" font-family="sans-serif" font-size="14" lengthAdjust="spacing" textLength="63" x="178.5" y="130.9395">Front End</text><rect fill="#E2E2F0" height="31.6094" rx="2.5" ry="2.5" style="stroke:#181818;stroke-width:0.5;" width="77" x="171.5" y="889.2891"/><text fill="#000000" font-family="sans-serif" font-size="14" lengthAdjust="spacing" textLength="63" x="178.5" y="910.8223">Front End</text><rect fill="#E2E2F0" height="31.6094" rx="2.5" ry="2.5" style="stroke:#181818;stroke-width:0.5;" width="69" x="341.5" y="109.4063"/><text fill="#000000" font-family="sans-serif" font-size="14" lengthAdjust="spacing" textLength="55" x="348.5" y="130.9395">Gateway</text><rect fill="#E2E2F0" height="31.6094" rx="2.5" ry="2.5" style="stroke:#181818;stroke-width:0.5;" width="69" x="341.5" y="889.2891"/><text fill="#000000" font-family="sans-serif" font-size="14" lengthAdjust="spacing" textLength="55" x="348.5" y="910.8223">Gateway</text><rect fill="#FFFF00" height="49.2188" rx="2.5" ry="2.5" style="stroke:#181818;stroke-width:0.5;" width="59" x="495.5" y="91.7969"/><text fill="#000000" font-family="sans-serif" font-size="14" lengthAdjust="spacing" textLength="45" x="502.5" y="113.3301">Identity</text><text fill="#000000" font-family="sans-serif" font-size="14" lengthAdjust="spacing" textLength="42" x="504" y="130.9395">Server</text><rect fill="#FFFF00" height="49.2188" rx="2.5" ry="2.5" style="stroke:#181818;stroke-width:0.5;" width="59" x="495.5" y="889.2891"/><text fill="#000000" font-family="sans-serif" font-size="14" lengthAdjust="spacing" textLength="45" x="502.5" y="910.8223">Identity</text><text fill="#000000" font-family="sans-serif" font-size="14" lengthAdjust="spacing" textLength="42" x="504" y="928.4316">Server</text><rect fill="#E2E2F0" height="31.6094" rx="2.5" ry="2.5" style="stroke:#181818;stroke-width:0.5;" width="68" x="573" y="109.4063"/><text fill="#000000" font-family="sans-serif" font-size="14" lengthAdjust="spacing" textLength="54" x="580" y="130.9395">Rest API</text><rect fill="#E2E2F0" height="31.6094" rx="2.5" ry="2.5" style="stroke:#181818;stroke-width:0.5;" width="68" x="573" y="889.2891"/><text fill="#000000" font-family="sans-serif" font-size="14" lengthAdjust="spacing" textLength="54" x="580" y="910.8223">Rest API</text><text fill="#000000" font-family="sans-serif" font-size="14" lengthAdjust="spacing" textLength="44" x="708" y="121.3301">Orders</text><text fill="#000000" font-family="sans-serif" font-size="14" lengthAdjust="spacing" textLength="59" x="700.5" y="138.9395">database</text><path d="M715,70.7969 C715,60.7969 733,60.7969 733,60.7969 C733,60.7969 751,60.7969 751,70.7969 L751,96.7969 C751,106.7969 733,106.7969 733,106.7969 C733,106.7969 715,106.7969 715,96.7969 L715,70.7969 " fill="#ADD8E6" style="stroke:#181818;stroke-width:1.5;"/><path d="M715,70.7969 C715,80.7969 733,80.7969 733,80.7969 C733,80.7969 751,80.7969 751,70.7969 " fill="none" style="stroke:#181818;stroke-width:1.5;"/><text fill="#000000" font-family="sans-serif" font-size="14" lengthAdjust="spacing" textLength="44" x="708" y="903.8223">Orders</text><text fill="#000000" font-family="sans-serif" font-size="14" lengthAdjust="spacing" textLength="59" x="700.5" y="921.4316">database</text><path d="M715,934.5078 C715,924.5078 733,924.5078 733,924.5078 C733,924.5078 751,924.5078 751,934.5078 L751,960.5078 C751,970.5078 733,970.5078 733,970.5078 C733,970.5078 715,970.5078 715,960.5078 L715,934.5078 " fill="#ADD8E6" style="stroke:#181818;stroke-width:1.5;"/><path d="M715,934.5078 C715,944.5078 733,944.5078 733,944.5078 C733,944.5078 751,944.5078 751,934.5078 " fill="none" style="stroke:#181818;stroke-width:1.5;"/><text fill="#000000" font-family="sans-serif" font-size="14" lengthAdjust="spacing" textLength="51" x="777.5" y="103.7207">External</text><text fill="#000000" font-family="sans-serif" font-size="14" lengthAdjust="spacing" textLength="55" x="775.5" y="121.3301">Shipping</text><text fill="#000000" font-family="sans-serif" font-size="14" lengthAdjust="spacing" textLength="47" x="779.5" y="138.9395">Service</text><ellipse cx="806" cy="73.1875" fill="#FFA500" rx="12" ry="12" style="stroke:#181818;stroke-width:0.5;"/><line style="stroke:#181818;stroke-width:0.5;" x1="794" x2="818" y1="87.1875" y2="87.1875"/><text fill="#000000" font-family="sans-serif" font-size="14" lengthAdjust="spacing" textLength="51" x="777.5" y="903.8223">External</text><text fill="#000000" font-family="sans-serif" font-size="14" lengthAdjust="spacing" textLength="55" x="775.5" y="921.4316">Shipping</text><text fill="#000000" font-family="sans-serif" font-size="14" lengthAdjust="spacing" textLength="47" x="779.5" y="939.041">Service</text><ellipse cx="806" cy="958.1172" fill="#FFA500" rx="12" ry="12" style="stroke:#181818;stroke-width:0.5;"/><line style="stroke:#181818;stroke-width:0.5;" x1="794" x2="818" y1="972.1172" y2="972.1172"/><rect fill="#FFFFFF" height="697.9219" style="stroke:#181818;stroke-width:1.0;" width="10" x="205" y="174.3672"/><rect fill="#FFFFFF" height="634.8672" style="stroke:#181818;stroke-width:1.0;" width="10" x="371" y="246.4219"/><rect fill="#FFFFFF" height="152.5938" style="stroke:#181818;stroke-width:1.0;" width="10" x="520" y="276.7734"/><rect fill="#FFFFFF" height="276.1641" style="stroke:#181818;stroke-width:1.0;" width="10" x="602" y="558.7734"/><rect fill="#FFFFFF" height="30.3516" style="stroke:#181818;stroke-width:1.0;" width="10" x="728" y="674.1797"/><rect fill="#FFFFFF" height="30.3516" style="stroke:#181818;stroke-width:1.0;" width="10" x="801" y="767.2344"/><polygon fill="#181818" points="193,170.3672,203,174.3672,193,178.3672,197,174.3672" style="stroke:#181818;stroke-width:1.0;"/><line style="stroke:#181818;stroke-width:1.0;" x1="54" x2="199" y1="174.3672" y2="174.3672"/><text fill="#000000" font-family="sans-serif" font-size="13" font-weight="bold" lengthAdjust="spacing" textLength="7" x="61" y="169.5107">1</text><text fill="#000000" font-family="sans-serif" font-size="13" lengthAdjust="spacing" textLength="86" x="72" y="169.5107">Orders request</text><path d="M10,189.3672 L195,189.3672 L195,197.7188 L185,207.7188 L10,207.7188 L10,189.3672 " fill="#EEEEEE" style="stroke:#000000;stroke-width:1.5;"/><rect fill="none" height="314.7031" style="stroke:#000000;stroke-width:1.5;" width="597" x="10" y="189.3672"/><text fill="#000000" font-family="sans-serif" font-size="13" font-weight="bold" lengthAdjust="spacing" textLength="140" x="25" y="203.8623">Step 1: Authentication</text><polygon fill="#181818" points="359,242.4219,369,246.4219,359,250.4219,363,246.4219" style="stroke:#181818;stroke-width:1.0;"/><line style="stroke:#181818;stroke-width:1.0;" x1="215" x2="365" y1="246.4219" y2="246.4219"/><text fill="#000000" font-family="sans-serif" font-size="13" font-weight="bold" lengthAdjust="spacing" textLength="7" x="222" y="233.3896">2</text><text fill="#000000" font-family="sans-serif" font-size="13" lengthAdjust="spacing" textLength="103" x="233" y="225.2139">GET /api/vi/orders</text><text fill="#000000" font-family="sans-serif" font-size="13" lengthAdjust="spacing" textLength="74" x="233" y="241.5654">Bearer token</text><polygon fill="#181818" points="508,272.7734,518,276.7734,508,280.7734,512,276.7734" style="stroke:#181818;stroke-width:1.0;"/><line style="stroke:#181818;stroke-width:1.0;" x1="381" x2="514" y1="276.7734" y2="276.7734"/><text fill="#000000" font-family="sans-serif" font-size="13" font-weight="bold" lengthAdjust="spacing" textLength="7" x="388" y="271.917">3</text><text fill="#000000" font-family="sans-serif" font-size="13" lengthAdjust="spacing" textLength="109" x="399" y="271.917">Authenticate token</text><line style="stroke:#181818;stroke-width:1.0;stroke-dasharray:2.0,2.0;" x1="530" x2="572" y1="323.4766" y2="323.4766"/><line style="stroke:#181818;stroke-width:1.0;stroke-dasharray:2.0,2.0;" x1="572" x2="572" y1="323.4766" y2="336.4766"/><line style="stroke:#181818;stroke-width:1.0;stroke-dasharray:2.0,2.0;" x1="531" x2="572" y1="336.4766" y2="336.4766"/><polygon fill="#181818" points="541,332.4766,531,336.4766,541,340.4766,537,336.4766" style="stroke:#181818;stroke-width:1.0;"/><text fill="#000000" font-family="sans-serif" font-size="13" font-weight="bold" lengthAdjust="spacing" textLength="7" x="537" y="310.4443">4</text><text fill="#000000" font-family="sans-serif" font-size="13" lengthAdjust="spacing" textLength="47" x="548" y="302.2686">Validate</text><text fill="#000000" font-family="sans-serif" font-size="13" lengthAdjust="spacing" textLength="32" x="548" y="318.6201">token</text><polygon fill="#008000" points="392,379.1797,382,383.1797,392,387.1797,388,383.1797" style="stroke:#008000;stroke-width:1.0;"/><line style="stroke:#008000;stroke-width:1.0;" x1="386" x2="519" y1="383.1797" y2="383.1797"/><text fill="#000000" font-family="sans-serif" font-size="13" font-weight="bold" lengthAdjust="spacing" textLength="7" x="398" y="370.1475">5</text><text fill="#000000" font-family="sans-serif" font-size="13" lengthAdjust="spacing" textLength="55" x="409" y="361.9717">Success,</text><text fill="#000000" font-family="sans-serif" font-size="13" lengthAdjust="spacing" textLength="86" x="409" y="378.3232">token validated</text><line style="stroke:#000000;stroke-width:1.0;stroke-dasharray:2.0,2.0;" x1="10" x2="607" y1="392.1797" y2="392.1797"/><text fill="#000000" font-family="sans-serif" font-size="11" font-weight="bold" lengthAdjust="spacing" textLength="121" x="15" y="403.5986">[Authentication failed]</text><polygon fill="#FF0000" points="392,425.3672,382,429.3672,392,433.3672,388,429.3672" style="stroke:#FF0000;stroke-width:1.0;"/><line style="stroke:#FF0000;stroke-width:1.0;" x1="386" x2="524" y1="429.3672" y2="429.3672"/><text fill="#000000" font-family="sans-serif" font-size="13" font-weight="bold" lengthAdjust="spacing" textLength="7" x="398" y="424.5107">5</text><text fill="#000000" font-family="sans-serif" font-size="13" lengthAdjust="spacing" textLength="82" x="409" y="424.5107">Request failed</text><polygon fill="#FF0000" points="226,455.7188,216,459.7188,226,463.7188,222,459.7188" style="stroke:#FF0000;stroke-width:1.0;"/><line style="stroke:#FF0000;stroke-width:1.0;" x1="220" x2="370" y1="459.7188" y2="459.7188"/><text fill="#000000" font-family="sans-serif" font-size="13" font-weight="bold" lengthAdjust="spacing" textLength="7" x="232" y="454.8623">6</text><text fill="#000000" font-family="sans-serif" font-size="13" lengthAdjust="spacing" textLength="121" x="243" y="454.8623">Authentication failure</text><polygon fill="#FF0000" points="65,489.0703,55,493.0703,65,497.0703,61,493.0703" style="stroke:#FF0000;stroke-width:1.0;"/><line style="stroke:#FF0000;stroke-width:1.0;" x1="59" x2="204" y1="493.0703" y2="493.0703"/><text fill="#000000" font-family="sans-serif" font-size="13" font-weight="bold" lengthAdjust="spacing" textLength="7" x="71" y="488.2139">7</text><text fill="#000000" font-family="sans-serif" font-size="13" lengthAdjust="spacing" textLength="116" x="82" y="488.2139">"Please login again"</text><path d="M220,472.7188 L220,498.7188 L383,498.7188 L383,482.7188 L373,472.7188 L220,472.7188 " fill="#FEFFDD" style="stroke:#181818;stroke-width:0.5;"/><path d="M373,472.7188 L373,482.7188 L383,482.7188 L373,472.7188 " fill="#FEFFDD" style="stroke:#181818;stroke-width:0.5;"/><text fill="#000000" font-family="sans-serif" font-size="13" lengthAdjust="spacing" textLength="142" x="226" y="491.2139">Authentication has failed</text><path d="M161.5,518.0703 L343.5,518.0703 L343.5,526.4219 L333.5,536.4219 L161.5,536.4219 L161.5,518.0703 " fill="#EEEEEE" style="stroke:#000000;stroke-width:1.5;"/><rect fill="none" height="324.8672" style="stroke:#000000;stroke-width:1.5;" width="695" x="161.5" y="518.0703"/><text fill="#000000" font-family="sans-serif" font-size="13" font-weight="bold" lengthAdjust="spacing" textLength="137" x="176.5" y="532.5654">Step 2: Call order API</text><polygon fill="#181818" points="590,554.7734,600,558.7734,590,562.7734,594,558.7734" style="stroke:#181818;stroke-width:1.0;"/><line style="stroke:#181818;stroke-width:1.0;" x1="381" x2="596" y1="558.7734" y2="558.7734"/><text fill="#000000" font-family="sans-serif" font-size="13" font-weight="bold" lengthAdjust="spacing" textLength="7" x="388" y="553.917">6</text><text fill="#000000" font-family="sans-serif" font-size="13" lengthAdjust="spacing" textLength="99" x="399" y="553.917">GET api/vi/orders</text><line style="stroke:#0000FF;stroke-width:1.0;stroke-dasharray:2.0,2.0;" x1="612" x2="654" y1="605.4766" y2="605.4766"/><line style="stroke:#0000FF;stroke-width:1.0;stroke-dasharray:2.0,2.0;" x1="654" x2="654" y1="605.4766" y2="618.4766"/><line style="stroke:#0000FF;stroke-width:1.0;stroke-dasharray:2.0,2.0;" x1="613" x2="654" y1="618.4766" y2="618.4766"/><polygon fill="#0000FF" points="623,614.4766,613,618.4766,623,622.4766,619,618.4766" style="stroke:#0000FF;stroke-width:1.0;"/><text fill="#000000" font-family="sans-serif" font-size="13" font-weight="bold" lengthAdjust="spacing" textLength="7" x="619" y="592.4443">7</text><text fill="#000000" font-family="sans-serif" font-size="13" lengthAdjust="spacing" textLength="52" x="630" y="584.2686">Do some</text><text fill="#000000" font-family="sans-serif" font-size="13" lengthAdjust="spacing" textLength="75" x="630" y="600.6201">processing...</text><path d="M563,633.4766 L645,633.4766 L645,641.8281 L635,651.8281 L563,651.8281 L563,633.4766 " fill="#EEEEEE" style="stroke:#000000;stroke-width:1.5;"/><rect fill="none" height="79.0547" style="stroke:#000000;stroke-width:1.5;" width="212.5" x="563" y="633.4766"/><text fill="#000000" font-family="sans-serif" font-size="13" font-weight="bold" lengthAdjust="spacing" textLength="37" x="578" y="647.9717">group</text><polygon fill="#181818" points="716,670.1797,726,674.1797,716,678.1797,720,674.1797" style="stroke:#181818;stroke-width:1.0;"/><line style="stroke:#181818;stroke-width:1.0;" x1="612" x2="722" y1="674.1797" y2="674.1797"/><text fill="#000000" font-family="sans-serif" font-size="13" font-weight="bold" lengthAdjust="spacing" textLength="18" x="619" y="669.3232">8.1</text><text fill="#000000" font-family="sans-serif" font-size="13" lengthAdjust="spacing" textLength="75" x="641" y="669.3232">Query orders</text><polygon fill="#181818" points="623,700.5313,613,704.5313,623,708.5313,619,704.5313" style="stroke:#181818;stroke-width:1.0;"/><line style="stroke:#181818;stroke-width:1.0;" x1="617" x2="732" y1="704.5313" y2="704.5313"/><text fill="#000000" font-family="sans-serif" font-size="13" font-weight="bold" lengthAdjust="spacing" textLength="18" x="629" y="699.6748">8.2</text><text fill="#000000" font-family="sans-serif" font-size="13" lengthAdjust="spacing" textLength="39" x="651" y="699.6748">Orders</text><path d="M563,726.5313 L636,726.5313 L636,734.8828 L626,744.8828 L563,744.8828 L563,726.5313 " fill="#EEEEEE" style="stroke:#000000;stroke-width:1.5;"/><rect fill="none" height="79.0547" style="stroke:#000000;stroke-width:1.5;" width="283.5" x="563" y="726.5313"/><text fill="#000000" font-family="sans-serif" font-size="13" font-weight="bold" lengthAdjust="spacing" textLength="28" x="578" y="741.0264">loop</text><text fill="#000000" font-family="sans-serif" font-size="11" font-weight="bold" lengthAdjust="spacing" textLength="120" x="651" y="739.9502">[Find shipping status]</text><polygon fill="#181818" points="789,763.2344,799,767.2344,789,771.2344,793,767.2344" style="stroke:#181818;stroke-width:1.0;"/><line style="stroke:#181818;stroke-width:1.0;" x1="612" x2="795" y1="767.2344" y2="767.2344"/><text fill="#000000" font-family="sans-serif" font-size="13" font-weight="bold" lengthAdjust="spacing" textLength="18" x="619" y="762.3779">9.1</text><text fill="#000000" font-family="sans-serif" font-size="13" lengthAdjust="spacing" textLength="117" x="641" y="762.3779">Find shipping status</text><polygon fill="#181818" points="623,793.5859,613,797.5859,623,801.5859,619,797.5859" style="stroke:#181818;stroke-width:1.0;"/><line style="stroke:#181818;stroke-width:1.0;" x1="617" x2="805" y1="797.5859" y2="797.5859"/><text fill="#000000" font-family="sans-serif" font-size="13" font-weight="bold" lengthAdjust="spacing" textLength="18" x="629" y="792.7295">9.2</text><text fill="#000000" font-family="sans-serif" font-size="13" lengthAdjust="spacing" textLength="130" x="651" y="792.7295">Return shipping status</text><polygon fill="#181818" points="226,830.9375,216,834.9375,226,838.9375,222,834.9375" style="stroke:#181818;stroke-width:1.0;"/><line style="stroke:#181818;stroke-width:1.0;" x1="220" x2="606" y1="834.9375" y2="834.9375"/><text fill="#000000" font-family="sans-serif" font-size="13" font-weight="bold" lengthAdjust="spacing" textLength="14" x="232" y="830.0811">10</text><text fill="#000000" font-family="sans-serif" font-size="13" lengthAdjust="spacing" textLength="39" x="250" y="830.0811">Orders</text><polygon fill="#181818" points="65,868.2891,55,872.2891,65,876.2891,61,872.2891" style="stroke:#181818;stroke-width:1.0;"/><line style="stroke:#181818;stroke-width:1.0;" x1="59" x2="209" y1="872.2891" y2="872.2891"/><text fill="#000000" font-family="sans-serif" font-size="13" font-weight="bold" lengthAdjust="spacing" textLength="14" x="71" y="867.4326">11</text><text fill="#000000" font-family="sans-serif" font-size="13" lengthAdjust="spacing" textLength="94" x="89" y="867.4326">Sends response</text><text fill="#888888" font-family="sans-serif" font-size="10" lengthAdjust="spacing" textLength="74" x="791.5" y="15.3809">//Let'sDoCoding</text><text fill="#888888" font-family="sans-serif" font-size="10" lengthAdjust="spacing" textLength="55" x="405.25" y="985.498">Page 1 of 1</text><!--SRC=[VLPDJnj94BtFhoWPHO22pH9fLoiVa4Xm418Ah9qFhK8EvPd2TDBkddJtE67_JOwx4eTLRXpZFxQlUsRimO6rmDFJNP-lNbTvcqOcvwdynONTer895KBbyjjC6QOTBjb9BeRm5sp1dZJ-csE_crqB5-9eV_zCmhO_jYzieSmikx8sOFk2Pq9FIdm_8Nj5Jw0RqbksJQzLgBI5Cqs5ufdZETnvYwt6PtIfUHNAvqh82obJg9ntiw225kgz6psdDvFHcCx7nwFnX5wUdR_hPHddmJgSofJUU74zGj1uYUiCreFALSacKE-bitYCJ954BgmBhEz9d72GBto3W5yWDYUUcBJrPASV9LX_tzff8GQ1tLoQYRX5uxVThBTewq_HsdwvhpWM7-ZeuZGfn1Uiiu83JnavzyuTGFQNfjr9OlNcSIkqTQPcr-6vhYIh_L5lz1L5CAmHphKgInIc3apbjONsl3rjpcZhtB6PIOQaNrLpSPohvNT3N0KxNtv3rAYKGOMy2Zm75a15Wh2BvJ8TXJcRYlKSuQ1qYb3fArrzjC0FAfyh9KvsisWLIbDKfgaGzG-RIj3JfpHi4aqgG2QRELkLD0bIqi6GZgfm7VFDEIXhCiAdqOMLfdYrcPFHQzhdKkqlrBvj07sEgE4ms4zIwxOQKDweMxBHyIOThMqwPdyj1MbbP2zzCrZjSv1B0GFgzm-Ju8RD_izkXlIMjKAXvT9q7Hmj_-L2ESeR5lRVRpafFXp6nS4pdkPnlMCivP4CNWoAenR0zo6txxTEd8Zvi4PeI9CgHqNzNkEM5aqOHIOQ5k_ZJ5UiD8xgsCPr_ICLDXW0EvN1ZYniM_lbzvdAuxttw3EWXFbnb-vsRXtoAgqf99bTyu9-VII9SG9WLR8-iXZN9Ed6jpfl5Hf-31_AgN9oZqEjJalD8VKkj4I8jKLR8fwnChq6XmbCVReXWzxdzuZn10pMY4_dSPjSlAG_kxx6RMn25bDadKj1ltK9_sn8BrXhIloD3MEJj4tlM3F-7k6JT2lIHtAnNNnOQmtfs9AtSt2lT3RI0LrXC1Wq-Rs264YUua62CrULA3aRyAImjV5qbbQrIcmne6Ba0ihTeSPAffFgxuE3rVOgoiFDHfTI-wCITqEThE9dGx03H-B6-LewWLn7U9e6IkHkP64P5L5uhsReJx5ncUKTWhOKN_3OKIPt4diQkzq1JQ1I2PX9t5nGNqszv7NTGMhCC0aEvKMhdAhbtsQmoMuOfACcc3DhopsQLhckQQZnJYynyyWtFPfyu53v3iHj28Iuq8DntpgZ1SaufwOSqSVyjcIRiNhmun_I6aEtuBtOa7DqQaB4oxkWOlgKHh6AIIy0XDHNcIdbbgwsBoLVtbx5QT0TuWCwbey9pzmcc0g6RC3KNDx6jhX6jhGkGXv_N81NiN5PkedJ5VPopIuPQSBVGRzexBcO7rFi0TYnyKS1rijRtks04h60pKSct4CiUsmO9hhzRmaUqzpatrX2vSo3PY8Vwy3VMhsGb7ZBFDzGpsyIv-2NR2E7jcjrs1ujhmVYQi96YGdEql16q_MI_GS0]--></g></svg>